grf
version=1
nRows=16
nColumns=28
inDegrees=no
endheader
time	ground_force_1_vx	ground_force_1_vy	ground_force_1_vz	ground_force_1_px	ground_force_1_py	ground_force_1_pz	ground_moment_1_mx	ground_moment_1_my	ground_moment_1_mz	ground_force_2_vx	ground_force_2_vy	ground_force_2_vz	ground_force_2_px	ground_force_2_py	ground_force_2_pz	ground_moment_2_mx	ground_moment_2_my	ground_moment_2_mz	ground_force_3_vx	ground_force_3_vy	ground_force_3_vz	ground_force_3_px	ground_force_3_py	ground_force_3_pz	ground_moment_3_mx	ground_moment_3_my	ground_moment_3_mz
      0.00000000	      0.16150435	      0.52828694	      1.97930656	    348.40264536	  -1239.31189525	      1.97193505	      0.06801211	      0.24593267	    134.75785845	      0.66073749	      0.38950471	      2.01518385	     32.09554234	  -1539.74313291	      0.29526894	     -0.02332279	     -0.30163215	    361.43779112	      1.50303668	     -0.81547728	      4.16012894	    437.92053861	   -259.97451548	      0.32825355	     -0.11906256	      0.87462490	    425.88997559
      0.01000000	      0.49312280	      0.34038920	      1.68412427	    326.60203886	  -1225.21861705	      1.95721760	      0.06407976	      0.23171324	    126.96637654	      0.72199014	      0.10149620	      1.97223945	     64.49661107	  -1586.34147025	      0.25847181	     -0.01653219	     -0.21380981	    256.20261828	      1.62872515	     -0.73426986	      4.77218755	    497.67201767	   -287.28263901	      0.40103885	     -0.09912941	      0.72819740	    354.58854850
      0.02000000	      0.35636452	      0.43655521	      1.57757406	    264.20593191	  -1266.53470312	      2.06411056	      0.08103161	      0.29301136	    160.55445052	      0.35836973	      0.34904608	      2.16565224	    124.50401853	  -1567.82801132	      0.27779407	     -0.01372422	     -0.17749444	    212.68686529	      1.48795237	     -0.79029852	      4.44602040	    480.43343879	   -276.75479772	      0.37459920	     -0.12624200	      0.92736451	    451.57101115
      0.03000000	      0.57360866	      0.55237973	      1.92840693	    311.49811460	  -1261.43082137	      2.03092769	      0.07766085	      0.28082265	    153.87569259	      0.82407818	      0.47236422	      2.25101057	     81.15439996	  -1578.35496456	      0.26621171	     -0.02290393	     -0.29621509	    354.94667320	      1.55637025	     -0.81045450	      4.71740851	    460.90822801	   -268.31958612	      0.35181780	     -0.09875442	      0.72544276	    353.24720234
      0.04000000	      0.49827331	      0.36110234	      1.30530137	    240.48812904	  -1208.80633131	      1.97072680	      0.10239334	      0.37025565	    202.88015884	      0.77515643	      0.35091350	      2.61106593	    132.26088094	  -1603.88494785	      0.24820386	     -0.01433061	     -0.18533686	    222.08423011	      1.50440034	     -0.60060232	      4.61026108	    482.08790850	   -282.01434356	      0.38586294	     -0.10576900	      0.77697134	    378.33853920
      0.05000000	      0.32380147	      0.20606799	      1.90095729	    324.98960226	  -1241.02941693	      1.98688605	      0.05828161	      0.21074705	    115.47803310	      0.62186382	      0.35064791	      2.10074190	     86.19293380	  -1538.36739307	      0.29990783	     -0.01752070	     -0.22659412	    271.52171004	      1.54186033	     -0.69627798	      4.23940030	    444.27794707	   -310.35524373	      0.43349474	     -0.10879002	      0.79916351	    389.14479726
      0.06000000	      0.27778603	      0.32161844	      1.96479309	    314.08379723	  -1218.15587871	      1.95064606	      0.06365204	      0.23016659	    126.11889794	      0.53165007	      0.20936879	      2.53932126	    164.11616461	  -1617.47565257	      0.23891751	     -0.01363321	     -0.17631741	    211.27646809	      1.59203329	     -0.73542900	      4.29525925	    485.92609047	   -274.17939852	      0.37084579	     -0.09926358	      0.72918298	    355.06846549
      0.07000000	      0.32588441	      0.31377542	      1.15755655	    205.53397229	  -1269.74673821	      2.09958417	      0.09717920	      0.35140126	    192.54896651	      0.49485336	      0.12651479	      1.94319371	     23.85315151	  -1534.50429061	      0.29910907	     -0.01721287	     -0.22261303	    266.75127730	    -17.85105106	     56.81468820	    -87.06192455	    496.52184041	   -461.95017501	      0.75942162	     -0.14283422	      1.04924978	    510.92184144
      0.08000000	      0.32291872	      0.50398135	      1.43219264	    267.98595472	  -1160.08313829	      1.86792901	      0.10301955	      0.37252003	    204.12091873	      0.55585772	      0.76722588	      2.36792482	    139.96951369	  -1543.46540958	      0.29912345	     -0.02515625	     -0.32534422	    389.85132832	   -168.68519095	    237.83188825	  -1002.54430941	    498.70264362	   -504.77778905	      0.84798381	      0.52607270	     -3.86449164	  -1881.77612450
      0.09000000	      0.46891916	      0.35324645	      1.82212450	    297.55357411	  -1228.71800590	      1.97826469	      0.09376300	      0.33904820	    185.78015840	      0.33510734	      0.46757803	      2.73329947	    151.48004497	  -1638.75356395	      0.22034498	     -0.01324975	     -0.17135818	    205.33395060	    -31.54365260	    184.34895872	  -1790.11243271	    477.42551472	   -498.90475348	      0.82997444	      0.66342355	     -4.87346092	  -2373.08377362
      0.10000000	      0.40439408	      0.16209971	      1.26684668	    289.82343285	  -1337.13798435	      2.18003220	      0.06860836	      0.24808873	    135.93926520	      0.69885590	      0.54435502	      2.88970798	    160.92575546	  -1688.16258671	      0.17972098	     -0.01757769	     -0.22733113	    272.40485285	    126.41421500	    153.56911754	  -1937.91620830	    466.88865686	   -511.57686425	      0.85305270	      1.37352347	    -10.08980304	  -4913.13016850
      0.11000000	      0.27504959	      0.16887155	      1.23197817	    211.00163739	  -1249.30310970	      2.05951509	      0.08799685	      0.31819775	    174.35523358	      0.50830985	      0.69762331	      1.72311607	      4.59108510	  -1535.44045375	      0.29708487	     -0.02971990	     -0.38436568	    460.57517861	     34.05757312	    384.05559664	  -2048.62536730	    470.87402818	   -539.34214538	      0.91118676	      3.78884107	    -27.83254966	 -13552.78580745
      0.12000000	      0.19401930	      0.24049417	      1.12318755	    207.70427285	  -1176.95137110	      1.92913757	      0.13788255	      0.49858507	    273.19777372	      0.40033647	      0.45821253	      2.69658135	    215.66908278	  -1645.76569915	      0.21863509	     -0.01574754	     -0.20366199	    244.04274455	     13.86681857	    332.02366584	  -2090.41825304	    472.45730660	   -552.25447721	      0.93814667	      1.84341621	    -13.54160077	  -6593.94906100
      0.13000000	      0.02879048	      0.29924460	      1.37948430	    180.19733765	  -1189.52736312	      1.96597143	      0.12281486	      0.44410013	    243.34295880	      0.75991815	      0.51665434	      2.65897209	    142.21693839	  -1599.34677495	      0.25263356	     -0.02970854	     -0.38421875	    460.39911324	    -15.66438623	    317.13460188	  -2240.43562532	    473.95648198	   -559.93523304	      0.95433929	      1.50369326	    -11.04602085	  -5378.75100900
      0.14000000	      0.12396881	      0.23414907	      1.08356711	    265.63087501	  -1188.82373452	      1.92156912	      0.08448650	      0.30550427	    167.39988991	      0.49091985	      0.50738540	      2.28245263	     79.87439631	  -1624.56822907	      0.22756257	     -0.01899284	     -0.24563321	    294.33574307	    -20.15946547	    264.12258294	  -2358.00350682	    473.88884037	   -564.03255158	      0.96273480	      0.93601837	     -6.87592256	  -3348.16273665
      0.15000000	      0.12133215	      0.15821466	      0.87337631	    135.33679711	  -1238.06672213	      2.07719666	      0.09318201	      0.33694736	    184.62901201	      0.62276489	      0.11593373	      2.27798747	     74.92523583	  -1557.35491520	      0.28333502	     -0.01374393	     -0.17774933	    212.99230210	    -52.07113171	    178.22496981	  -2431.62926447	    475.52491027	   -566.65334869	      0.96857436	      0.05935058	     -0.43598504	   -212.29861849
